<svg xmlns="http://www.w3.org/2000/svg" width="185" height="60" fill="#fff"><path d="M59.502 23.208c-2.51 0-4.41.911-5.436 2.316v-9.376h-5.703v26.57h5.703V32.357c0-2.695 1.444-3.91 3.535-3.91 1.825 0 3.308 1.101 3.308 3.455v10.818h5.702V31.065c0-5.124-3.27-7.857-7.109-7.857M84.327 23.74v1.784c-1.254-1.443-3.117-2.316-5.664-2.316-4.98 0-9.086 4.365-9.086 10.021s4.106 10.021 9.086 10.021c2.547 0 4.41-.873 5.664-2.315v1.784h5.703v-18.98zm-4.524 14.12c-2.623 0-4.524-1.784-4.524-4.63 0-2.848 1.901-4.632 4.524-4.632s4.524 1.784 4.524 4.631-1.9 4.631-4.524 4.631M103.338 43.25c3.725 0 6.957-1.936 8.591-4.897l-4.98-2.846c-.608 1.328-2.015 2.125-3.688 2.125-2.471 0-4.295-1.784-4.295-4.403s1.824-4.403 4.295-4.403c1.673 0 3.042.797 3.688 2.126l4.98-2.885c-1.634-2.923-4.904-4.859-8.591-4.859-5.779 0-10.075 4.365-10.075 10.021S97.56 43.25 103.338 43.25M132.472 42.719l-7.109-9.49 6.919-9.49h-6.653l-5.702 8.314V16.148h-5.703v26.57h5.703V34.33l6.083 8.389zM146.106 23.74v10.362c0 2.695-1.444 3.91-3.535 3.91-1.825 0-3.308-1.1-3.308-3.454V23.74h-5.702v11.653c0 5.124 3.269 7.857 7.109 7.857 2.509 0 4.41-.91 5.436-2.315v1.784h5.703v-18.98zM177.28 23.208c-2.699 0-4.448.987-5.512 2.505-1.065-1.594-2.737-2.505-4.98-2.505-2.547 0-4.22.987-5.095 2.278V23.74h-5.702v18.979h5.702V32.014c0-2.239 1.065-3.568 2.966-3.568 1.825 0 2.737 1.215 2.737 3.113v11.16h5.702V32.014c0-2.239 1.065-3.568 2.966-3.568 1.825 0 2.737 1.215 2.737 3.113v11.16h5.703V31.065c0-4.744-2.852-7.857-7.224-7.857"></path><path fill="#EF3340" d="M2.253 9.073c0-.235.162-.438.39-.491l18.887-4.37a.5.5 0 0 1 .227 0l18.918 4.37c.228.053.39.256.39.49v.665c0 .234-.16.437-.388.49L2.873 19.166a.504.504 0 0 1-.62-.49z"></path><path fill="#E5BF03" d="M2.253 22.291c0-.233.16-.436.388-.49l37.805-8.937a.504.504 0 0 1 .619.49v10.328c0 .234-.16.437-.388.49L2.873 33.11a.504.504 0 0 1-.62-.49z"></path><path fill="#00AB84" d="M2.253 36.308c0-.234.16-.437.388-.49l37.805-8.938a.504.504 0 0 1 .619.49V37.7c0 .233-.16.436-.388.49L2.873 47.126a.504.504 0 0 1-.62-.49z"></path><path fill="#0085CA" d="M41.033 50.927a.504.504 0 0 1-.39.491l-18.887 4.37a.5.5 0 0 1-.227 0l-18.918-4.37a.504.504 0 0 1-.39-.49v-.665c0-.234.16-.437.388-.49l37.805-8.938a.504.504 0 0 1 .619.49z"></path></svg>